# xmcd
# 
# Track frame offsets:
#     150
#     29790
#     62927
#     126637
#     159837
#     178232
# 
# Disc length: 3571
# 
# Revision: 2
# Processed by: cddbd v1.5.2PL0 Copyright (c) Steve Scherf et al.
# Submitted via: fre:ac v1.1beta1pre5
# 
DISCID=590df106
DTITLE=Symphony X - Live on the Edge of Forever [CD 2)
DYEAR=2001
DGENRE=Heavy Metal
TTITLE0=Smoke and Mirrors
TTITLE1=Church of the Machine
TTITLE2=Through the Looking Glass
TTITLE3=Of Sins and Shadows
TTITLE4=Sea of Lies
TTITLE5=The Divine Wings of Tragedy
EXTD=
EXTT0=
EXTT1=
EXTT2=
EXTT3=
EXTT4=
EXTT5=
PLAYORDER=
